<svg width="65" height="60" viewBox="0 0 65 60" fill="none" xmlns="http://www.w3.org/2000/svg">
<g id="&#240;&#159;&#166;&#134; icon &#34;wallet&#34;">
<path id="Vector" d="M55.3948 57.008H9.33573C5.70177 57.008 2.75586 54.0664 2.75586 50.4374V20.8697C2.75586 17.2408 5.70177 14.2991 9.33573 14.2991H55.3948C59.0289 14.2991 61.9747 17.2408 61.9747 20.8697V50.4374C61.9747 54.0664 59.0289 57.008 55.3948 57.008Z" stroke="black" stroke-width="4.93"/>
<path id="Vector_2" d="M47.1699 37.2962C46.2615 37.2962 45.5249 36.5607 45.5249 35.6536C45.5249 34.7465 46.2615 34.0109 47.1699 34.0109C48.0782 34.0109 48.8148 34.7465 48.8148 35.6536C48.8148 36.5607 48.0782 37.2962 47.1699 37.2962Z" fill="black" stroke="black" stroke-width="4.93" stroke-linecap="round" stroke-linejoin="round"/>
<path id="Vector_3" d="M52.1049 14.299V9.71018C52.1049 5.39309 48.0069 2.24909 43.8297 3.36143L7.64033 12.9983C4.75999 13.7654 2.75586 16.3703 2.75586 19.3471V20.8696" stroke="black" stroke-width="4.93"/>
</g>
</svg>
