<svg width="64" height="60" viewBox="0 0 64 60" fill="none" xmlns="http://www.w3.org/2000/svg">
<g id="&#240;&#159;&#166;&#134; icon &#34;yoga&#34;">
<path id="Vector" d="M40.2522 38.7974L42.9869 44.3193C42.9869 44.3193 55.292 46.771 55.292 52.6024C55.292 56.744 49.8229 56.744 49.8229 56.744H35.2391L28.061 53.0028" stroke="black" stroke-width="4.93" stroke-linecap="round" stroke-linejoin="round"/>
<path id="Vector_2" d="M23.8453 38.7974L21.1109 44.3193C21.1109 44.3193 8.80566 46.771 8.80566 52.6024C8.80566 56.744 14.2746 56.744 14.2746 56.744H20.883L28.0611 53.0028L36.8343 47.7653" stroke="black" stroke-width="4.93" stroke-linecap="round" stroke-linejoin="round"/>
<path id="Vector_3" d="M3.33643 41.5583C3.33643 41.5583 10.1727 40.178 14.2744 38.7974C18.3761 19.4704 30.6812 20.8509 32.0486 20.8509C33.4159 20.8509 45.721 19.4704 49.8227 38.7974C53.9244 40.178 60.7607 41.5583 60.7607 41.5583" stroke="black" stroke-width="4.93" stroke-linecap="round" stroke-linejoin="round"/>
<path id="Vector_4" d="M32.0484 14.8435C35.5724 14.8435 38.4289 12.1636 38.4289 8.85773C38.4289 5.55187 35.5724 2.87195 32.0484 2.87195C28.5245 2.87195 25.668 5.55187 25.668 8.85773C25.668 12.1636 28.5245 14.8435 32.0484 14.8435Z" stroke="black" stroke-width="4.93" stroke-linecap="round" stroke-linejoin="round"/>
</g>
</svg>
