<svg width="82" height="56" viewBox="0 0 82 56" fill="none" xmlns="http://www.w3.org/2000/svg">
<path d="M3.36963 53.376V50.4212C3.36963 38.9979 14.1064 29.7375 27.3508 29.7375C40.5953 29.7375 51.332 38.9979 51.332 50.4212V53.376" stroke="black" stroke-width="4.94" stroke-linecap="round"/>
<path d="M44.4805 35.6471C44.4805 27.4876 52.1496 20.873 61.6099 20.873C71.0701 20.873 78.7393 27.4876 78.7393 35.6471V37.1245" stroke="black" stroke-width="4.94" stroke-linecap="round"/>
<path d="M27.351 29.7375C34.9191 29.7375 41.0545 24.4457 41.0545 17.9182C41.0545 11.3906 34.9191 6.09888 27.351 6.09888C19.7827 6.09888 13.6475 11.3906 13.6475 17.9182C13.6475 24.4457 19.7827 29.7375 27.351 29.7375Z" stroke="black" stroke-width="4.94" stroke-linecap="round" stroke-linejoin="round"/>
<path d="M61.6097 20.873C67.286 20.873 71.8873 16.9042 71.8873 12.0085C71.8873 7.11281 67.286 3.14404 61.6097 3.14404C55.9333 3.14404 51.332 7.11281 51.332 12.0085C51.332 16.9042 55.9333 20.873 61.6097 20.873Z" stroke="black" stroke-width="4.94" stroke-linecap="round" stroke-linejoin="round"/>
</svg>
