<svg width="44" height="44" viewBox="0 0 44 44" fill="none" xmlns="http://www.w3.org/2000/svg">
<path d="M16.4991 0C13.4843 0 11.0177 2.42124 11.0177 5.38054V10.7611H0.548143C0.219257 10.7611 0.0548143 10.9763 0.0548143 11.2453V24.2124C0.0548143 25.719 1.26073 26.9027 2.79553 26.9027H41.1655C42.7003 26.9027 43.9062 25.719 43.9062 24.2124V11.2453C43.9062 10.9225 43.687 10.7611 43.4129 10.7611H32.9434V5.38054C32.9434 2.42124 30.4767 0 27.462 0L16.4991 0ZM16.4991 5.38054H27.462V10.7611H16.4991V5.38054ZM0.0548143 31.799V42.5601C0.0548143 42.8291 0.274071 43.0443 0.548143 43.0443H43.3581C43.6322 43.0443 43.8514 42.8291 43.8514 42.5601V31.799C42.9744 32.1218 42.0974 32.2832 41.1107 32.2832H2.74071C1.75406 32.2832 0.877029 32.068 0 31.799H0.0548143Z" fill="black"/>
</svg>
